<svg xmlns="http://www.w3.org/2000/svg" viewBox="0 0 1669.32 1115.49"><defs><style>.cls-1{fill:#dcf6f9;}.cls-2{fill:#fcbdb6;}.cls-3{fill:#f9a6a0;}.cls-4{fill:#49adb7;}.cls-5{fill:#333;}.cls-6{fill:#5c305d;}.cls-7{fill:#080435;}.cls-8{fill:#501506;}.cls-9{fill:#24555e;}.cls-10{fill:#ff7b69;}.cls-11{fill:#fff;}.cls-12{fill:#8bc0cc;}.cls-13{fill:#ff4b42;}.cls-14{fill:#e9633e;}.cls-15{fill:#764678;}</style></defs><g id="Capa_2" data-name="Capa 2"><g id="_Layer_" data-name="&lt;Layer&gt;"><ellipse class="cls-1" cx="834.66" cy="1027.44" rx="834.66" ry="88.05"/><path class="cls-2" d="M859.85,476.55c3.33-6,12.43,12.73,12.43,12.73s-6.8-14.81-4.57-20.29c1.77-4.36,10.26,8.13,13.64,13.4l.14-.1c-2.86-5.42-9.38-18.78-6.35-22.39,3.43-4.09,13.29,14.17,15.06,17.45l.06,0c-14.41-33.76,4.19-14.69,12.19.85,1.41-3.49,15-11.09,17.21-10.49,2.56.7-3.28,11.81-4.36,14.22-2.65,5.9-1.3,11.89,2.78,17.33,1.58,2.12-32.34,17.64-32.34,17.64a89.68,89.68,0,0,1-13.83-15.3,10,10,0,0,1-1.45-1.83c-.54-.87-1.29-2-2.13-3.33h0C864.29,490.11,858,479.93,859.85,476.55Z"/><path class="cls-3" d="M893.21,503.25a.52.52,0,0,1-.45-.26c0-.05-2.85-5.1.8-9.19,3.34-3.75,5.8-10.09,5.83-10.15a.51.51,0,0,1,.66-.3.51.51,0,0,1,.29.66c-.1.27-2.55,6.58-6,10.47-3.16,3.55-.7,8-.67,8a.52.52,0,0,1-.19.7A.47.47,0,0,1,893.21,503.25Z"/><path class="cls-4" d="M988.91,462.88S956,525,946.13,516.87s-25.83-26.63-25.83-26.63-35.95,15.18-39.72,30.27c0,0,31,63.66,81.2,63s59.59-105.18,59.59-105.18Z"/><path class="cls-2" d="M1259.33,667.39c-4.27-14.61-9.48-23.3-9.48-23.3s-32.22.18-33.78,3c-3.6,6.53-7.78,21-11.25,27.59-1.51,2.86-5.9,12.82-3.25,14.69,2.3,1.62,9.57-4.64,12.67-8,2.66,21.12,16,50.75,13.7,6.08h.07c.66,4.5,4.31,29.51,10,26.28,5-2.86,3.14-20.87,2.14-28.28l.2,0c1.68,7.44,6.18,25.29,10.07,21,4.87-5.33,3.29-25.13,3.29-25.13s2.58,25.25,9,19.78c4.35-3.72-.94-23.88-2.44-31A11.72,11.72,0,0,0,1259.33,667.39Z"/><path class="cls-5" d="M1187.2,646.12c-.19,7.3-44.63,10.19-99.59,8.49s-98.89-9.24-98.7-16.53,44.42-11.58,99.38-9.88S1187.39,638.83,1187.2,646.12Z"/><path class="cls-4" d="M1173.75,439.65S1164,401.42,1092.32,401c-103.41-.56-93.84,93.74-103.41,237.05,0,0,62.7-26,198.29,8C1187.2,646.12,1196.2,498.06,1173.75,439.65Z"/><path class="cls-4" d="M1200.22,434.16l-46.84,25.72s-104.78,22.94-132,18.49-32.46-15.49-32.46-15.49,29-52.27,78.28-60.22c4.63-.75,9.43-1.31,14.41-1.63a143.63,143.63,0,0,1,24.91.49C1169,408.51,1200.22,434.16,1200.22,434.16Z"/><path class="cls-2" d="M1102.18,392.28l-5.42-17.34-1.57-5-9.27-29.68-1.21,29.52-.73,17.72-.23,5.61c-.16,3.81-2.5,4.61-5.35,7.91-1.15,1.34-8.53,9.47-.15,13.14,10.43,4.58,29.93-2.35,37.35-11.42C1115.54,402.69,1103.93,397.88,1102.18,392.28Z"/><path class="cls-2" d="M1214.05,658.71c-4.31-47.11-14.2-114.46-36.84-167.79-5.25-12.36-7.43-17-11.52-23.75-3.29-5.43,2.6-17.36,11.9-23.05,8.73-5.34,22.32-4.47,24.47-1.83,3.65,4.5,7.55,13.11,13.63,26.79,21.09,47.53,33.73,108.92,38.85,188.07Z"/><path class="cls-6" d="M1062.08,329.08a38.88,38.88,0,0,0,0,16.19c1.89,9,11.12-13.14,11.12-13.14Z"/><path class="cls-2" d="M1061,347.86c2.3-17.41,16-30,30.52-28.09s24.48,17.55,22.18,35-16,30-30.52,28.1S1058.68,365.28,1061,347.86Z"/><path class="cls-7" d="M1085.94,350a.5.5,0,0,1-.25-.4.53.53,0,0,1,.49-.58,5.85,5.85,0,0,1,6.21,3.51.53.53,0,0,1-.24.71.58.58,0,0,1-.72-.24,9.21,9.21,0,0,0-5.16-2.91A.53.53,0,0,1,1085.94,350Z"/><path class="cls-7" d="M1088.27,356.82c-.33,1.23-1.34,2-2.24,1.79s-1.35-1.44-1-2.67,1.34-2,2.24-1.79S1088.61,355.59,1088.27,356.82Z"/><path class="cls-7" d="M1066,348.38a.38.38,0,0,1-.29-.27.63.63,0,0,1,.21-.72,3.79,3.79,0,0,1,5.49.62.63.63,0,0,1,0,.74.39.39,0,0,1-.59.08,5.74,5.74,0,0,0-4.57-.52A.37.37,0,0,1,1066,348.38Z"/><path class="cls-7" d="M1070.92,353.86a2.07,2.07,0,0,1-1.39,2.5c-.92.11-1.8-.82-2-2.09a2.07,2.07,0,0,1,1.39-2.5C1069.88,351.66,1070.76,352.59,1070.92,353.86Z"/><path class="cls-8" d="M1131.39,346.47s-8.88,19-21.48,20.42c0,0,10.19-14.5-11.28-23.33C1098.63,343.56,1118.34,340.48,1131.39,346.47Z"/><path class="cls-2" d="M1113.63,357c-2.69,1.7-6.12,1.14-7.65-1.25s-.59-5.7,2.1-7.4,6.12-1.15,7.65,1.24S1116.32,355.27,1113.63,357Z"/><path class="cls-8" d="M1098.63,343.56s1.72,16-1.56,19-24.89,4.32-35,.45h0a20.91,20.91,0,0,0,17.31,21,30.83,30.83,0,0,0,10.32,0h0c7.07-1.23,13.93-4.13,16.85-10.63.88-2-1.7-14.15-1.7-14.15s-1-7.15,3.22-10.86C1108.08,348.32,1103.25,344,1098.63,343.56Z"/><path class="cls-8" d="M1098.63,343.56s1.77-11.17-7.05-12-18.88-2.27-22.33,0-7.6,11.17-7.6,11.17-4.84-16.74,4-23.9,37.13-16.59,55.17-4.12,10.54,31.72,10.54,31.72S1118.51,342.57,1098.63,343.56Z"/><path class="cls-8" d="M1110.86,314.75s13.29-10.9,10.29-18.95-17.08-5.51-22.52-4.25-6.36,10.9-2,17.12S1110.86,314.75,1110.86,314.75Z"/><path class="cls-5" d="M1090.38,997.54A16.62,16.62,0,0,0,1075,1006a13.91,13.91,0,0,1-6.74,6.25c-9.6,4-37.41,7.56-27,16.61,6,5.19,34.07,1.83,42,1.83s15.39,3.43,21.28-1.84c3.53-3.15,3.22-13.14,2.2-21.59a11.19,11.19,0,0,0-12.41-9.83,17.46,17.46,0,0,1-2.79.15Z"/><path class="cls-5" d="M1188.4,994.2s-.36,14.08-10,18-37.41,7.55-27,16.6c6,5.2,34.06,1.84,42,1.84s15.39,3.43,21.28-1.84c6.49-5.8,0-34.65,0-34.65s-6.84,3.54-13,3.38C1192.83,997.35,1188.4,994.2,1188.4,994.2Z"/><path class="cls-9" d="M1018.67,640.09a9.31,9.31,0,0,0-8.3,8.12c-1,8.57-1.22,26.67,4,64.23,7.6,55.18,36.34,256.55,41.12,283.38,1.7,9.6,3.66,15.51,17.68,17.54l18.62-.37c15.16,2.19,21-14,21.11-24.29l-12.19-310.19,48.46-36.69a687.45,687.45,0,0,0-77.27-4.57A528.2,528.2,0,0,0,1018.67,640.09Z"/><path class="cls-9" d="M1064.27,650.38,1171.08,990.9a34.41,34.41,0,0,0,32.14,24.27l6.42.11c15.16.26,26.74-13.65,24-28.79l-58.43-320c-.85-3.81-3-20.62-6.72-21.67C1148.44,639.12,1062.3,636.3,1064.27,650.38Z"/><path class="cls-5" d="M1112,802.58l-23-69.3a65.82,65.82,0,0,0-29.92-36.62l.89-1.56a67.61,67.61,0,0,1,30.73,37.62l23,69.3Z"/><path class="cls-10" d="M1138.42,409.69s11.15-10.22-2.25-13.82c-5.3-1.43-13.2-14.41-20.57-13.29s-11.72,42.3-41.3,55c0,0-7.28,6.3,4.57,6S1138.42,409.69,1138.42,409.69Z"/><path class="cls-10" d="M1074.3,437.62s-14.8-14.45-12.22-27.93-4.94-25-8.61-18.92-7.91,2.31-8.75,9.94,10.59,45.17,21,45.17S1074.3,437.62,1074.3,437.62Z"/><path class="cls-10" d="M1077.65,440.46s9.57,4.27,6,14.38,1.41,14.19,1.41,14.19-11.59.56-13-10.27A24.16,24.16,0,0,1,1077.65,440.46Z"/><path class="cls-10" d="M1072.22,440.46s-12.15,4.11-12.68,12,6.44,9.71,8.89,5,7.53-13.81,7.53-13.81Z"/><path class="cls-8" d="M1106.56,373.33s-.09,11-7.93,17.14-2.66,11.54-9.56,20.29,1.31,8.95-10.92,15.32-21.44.59-19-9.15-8.21-7.16-3.2-19.5,8.65-4.77,4.42-17.9,1.75-16.54,1.75-16.54,6.76.46,12.22,1.43,10.36-.74,14.17.47S1106.56,373.33,1106.56,373.33Z"/><path class="cls-11" d="M1067.41,368.75a55,55,0,0,0,17.34,1.35s-1.33,8.32-10.49,6.66C1068.93,375.8,1067.41,368.75,1067.41,368.75Z"/><path class="cls-5" d="M1254.54,640.15s-27.92,3-42.38,0c0,0-1.88,7.38,1.14,10.75,0,0,33.45,2.51,41.24,0C1254.54,650.9,1260.3,645.36,1254.54,640.15Z"/><rect class="cls-12" x="1226.41" y="635.16" width="20.49" height="21.85" rx="9.99" transform="translate(2473.32 1292.17) rotate(-180)"/><path class="cls-4" d="M1200.22,434.16s23.66,13.9,46.68,105.17,5.72,92.93,5.72,92.93-31,.6-41-2.94-15.33-85.33-35.25-118.59S1149.29,426.53,1200.22,434.16Z"/><path class="cls-6" d="M1071.9,499.52a3.53,3.53,0,1,0-3.53,3.5A3.52,3.52,0,0,0,1071.9,499.52Z"/><path class="cls-6" d="M1071.9,542.15a3.53,3.53,0,1,0-3.53,3.5A3.52,3.52,0,0,0,1071.9,542.15Z"/><path class="cls-6" d="M1071.9,592.68a3.53,3.53,0,1,0-3.53,3.5A3.52,3.52,0,0,0,1071.9,592.68Z"/><path class="cls-9" d="M915.17,330.71s41.57-29.65,50-26.52c9.27,3.45,42.87,54,52.23,91.23,5.27,21-1.15,25.43-11.7,29.13l-46.38,16.24Z"/><path class="cls-13" d="M920.65,330.09c-4.63-.6-36.93,6.55-59.38-6.59-24.21-14.16-39-49.18-55-38.1-15.57,10.76,15.1,73.25,17,77a.18.18,0,0,1-.1.25c-3.55,1.62-49.21,23.68-57.91,38.4-9.68,16.39,8.38,26.76,8.38,26.76-4,3.53-17,23.49,13.39,33.46a.31.31,0,0,1,.17.36C786,466.45,778.31,489.32,812,488c0,0-2.37,24.23,21.16,20.86s121.44-57.94,126.14-67.69C970.66,417.5,940.78,332.65,920.65,330.09Z"/><path class="cls-6" d="M993.45,566l-.94-.05c1.49-28,10.45-77.79,10.54-78.29l.92.16C1003.88,488.29,994.94,538,993.45,566Z"/><path class="cls-6" d="M1187.77,538.76c-4-17.18-15.74-42.29-15.86-42.54l.86-.4c.12.25,11.93,25.44,15.92,42.72Z"/><path class="cls-2" d="M309.77,432.78c22.59,10.84,47.11,64.28,47.11,64.28s-27.83,14.15-29.24,14.62S272,454.29,272,454.29,300,428.08,309.77,432.78Z"/><path class="cls-5" d="M248.27,977.2s.69,13.33,9.83,16.85,35.38,6.22,25.84,15.06c-5.48,5.07-32,2.61-39.47,2.81s-14.38,3.64-20.06-1.21c-6.25-5.33-.89-32.85-.89-32.85s6.53,3.19,12.32,2.88C244.18,980.3,248.27,977.2,248.27,977.2Z"/><path class="cls-12" d="M315.32,572.36s3.42,60.17-12.68,176.23C291,832.37,276.9,916.86,270,957.37a31.45,31.45,0,0,1-28.68,26.32l-7.71.52c-15.52,1-28.48-12-27.78-27.86l12.15-273.13,2.38-89.85Z"/><path class="cls-5" d="M162.75,979.5s.69,13.34,9.82,16.86,35.39,6.21,25.84,15.06c-5.47,5.07-32,2.6-39.46,2.8s-14.39,3.65-20.07-1.2c-6.25-5.33-.88-32.85-.88-32.85s6.53,3.18,12.32,2.87C158.66,982.6,162.75,979.5,162.75,979.5Z"/><path class="cls-12" d="M229.79,574.66s3.43,60.18-12.68,176.23c-11.62,83.78-25.74,168.27-32.69,208.79A31.44,31.44,0,0,1,155.75,986l-7.71.51c-15.52,1-28.49-12-27.78-27.85L132.4,685.53l2.39-89.86Z"/><path class="cls-5" d="M126.63,643.5c.38,7.26,44.4,9,98.69,5.8s97.53-11.85,97.14-19.11-44.22-10.35-98.52-7.19S126.25,636.23,126.63,643.5Z"/><path class="cls-4" d="M134.38,437.42s8.59-38.34,79.48-40.64c102.23-3.32,95.29,90.89,108.6,233.41,0,0-101.09-11.53-195.93,11.52C126.53,641.71,113.75,496.22,134.38,437.42Z"/><path class="cls-4" d="M108.07,432.67l47,24.37s101.65,6.47,128.44,1.31,33.65-25.12,33.65-25.12-29.47-28.89-78.41-35.5c-4.59-.62-9.36-1.05-14.29-1.23a140.09,140.09,0,0,0-24.62,1.15C138.26,406.28,108.07,432.67,108.07,432.67Z"/><path class="cls-2" d="M203.87,388.32l4.89-17.41,1.42-5.07L218.54,336l2,29.38,1.2,17.64.38,5.58c.26,3.79,2.59,4.52,5.49,7.74,1.18,1.31,8.69,9.21.51,13.09-10.19,4.84-29.66-1.55-37.23-10.39C190.94,399.05,202.29,394,203.87,388.32Z"/><path class="cls-12" d="M314.07,636.3s-59.35-15.74-180.66,11.33l-.47,17.57,178.94,1.5Z"/><path class="cls-5" d="M107.13,433.76c-3.76,5.67,4.79,18.18,19.08,27.93s28.92,13.07,32.68,7.39-4.79-18.18-19.08-27.93S110.89,428.09,107.13,433.76Z"/><path class="cls-8" d="M235.83,319.46a38.84,38.84,0,0,1,3.24,15.81c0,9.17-13.4-10.61-13.4-10.61Z"/><ellipse class="cls-2" cx="215.82" cy="346.18" rx="26.29" ry="31.7" transform="translate(-101.35 89.62) rotate(-19.09)"/><path class="cls-8" d="M188.51,346l12.2-3.85a9.29,9.29,0,0,0,5.89-5.46c1.73-4.52,4.38-7.21,16.1-9.16,14.83-2.47,22.75-13.25,22.76-21.28,0-8.19-8.62-12-15.25-6.7s-5.34-4.58-12.65-4.1c-13.66.91-14,11.66-25,13.57-14.35,2.49-37.68,18.58-20.4,41.2Z"/><path class="cls-7" d="M216.9,344.6a.49.49,0,0,0,.16-.45.52.52,0,0,0-.59-.46,5.76,5.76,0,0,0-5.31,4.66.53.53,0,0,0,.38.65.58.58,0,0,0,.65-.38,9.18,9.18,0,0,1,4.41-3.87A.54.54,0,0,0,216.9,344.6Z"/><path class="cls-7" d="M216,351.76c.57,1.14,1.71,1.72,2.53,1.3s1-1.67.45-2.81-1.71-1.71-2.53-1.3S215.44,350.63,216,351.76Z"/><path class="cls-7" d="M235.9,339.09a.39.39,0,0,0,.22-.32.64.64,0,0,0-.34-.67,3.75,3.75,0,0,0-5.2,1.7.64.64,0,0,0,.14.73.39.39,0,0,0,.59,0,5.57,5.57,0,0,1,4.32-1.41A.36.36,0,0,0,235.9,339.09Z"/><path class="cls-7" d="M232.24,345.41c.09,1.27.92,2.24,1.84,2.17s1.59-1.16,1.49-2.43-.93-2.24-1.85-2.16S232.14,344.14,232.24,345.41Z"/><path class="cls-8" d="M172.17,350.24s12.42,16.8,24.91,15.66c0,0-12.78-12.13,6.25-25C203.33,340.87,183.61,341.79,172.17,350.24Z"/><path class="cls-2" d="M191.48,357c3,1.13,6.16-.1,7.17-2.74s-.58-5.68-3.53-6.81-6.16.1-7.16,2.74S188.53,355.83,191.48,357Z"/><path class="cls-8" d="M203.33,340.87s1.53,15.93,5.31,18.22,25-.74,34-6.52h0a20.79,20.79,0,0,1-12.55,23.95,30.2,30.2,0,0,1-10,2h0c-7.09.21-14.33-1.26-18.45-7-1.26-1.76-1.2-14.16-1.2-14.16s-.5-7.16-5.3-10C195.12,347.4,198.94,342.23,203.33,340.87Z"/><path class="cls-8" d="M227.22,298.79a3.94,3.94,0,0,1-3.75-2.63l.69-.21c0,.12.9,2.77,4.27,2l.16.7A5.88,5.88,0,0,1,227.22,298.79Z"/><path class="cls-11" d="M226,322.57l-.17-.32a46.91,46.91,0,0,0,7.34-5c3.26-2.73,7-6.88,6.51-11.15-.28-2.32-1-3.75-2.11-4.39-1.83-1-4.52.23-6.9,1.32l-1.06.49-.15-.33,1.06-.48c2.46-1.13,5.23-2.42,7.22-1.31,1.25.69,2,2.22,2.3,4.66C241.1,314.51,226.64,322.24,226,322.57Z"/><path class="cls-11" d="M187.05,313.19l0-.36c15.71-1.07,21.32-11.18,21.37-11.28l.32.17C208.65,301.83,203,312.11,187.05,313.19Z"/><path class="cls-11" d="M221.46,362.66s10,.59,15.75-3C237.21,359.71,232.94,375.14,221.46,362.66Z"/><path class="cls-9" d="M240.64,502.13s-66.43-16.51-75.35-8.49c-9.86,8.87-26.9,88.42-20.24,139.5,3.76,28.76,14,31.16,28.94,30.57l65.84-2.56Z"/><path class="cls-13" d="M233.34,503.64c5.49-3,49.29-10,70.82-37.44,23.22-29.59,24.41-80.54,49.89-74.62,24.71,5.75,17.22,98.79,16.74,104.41a.26.26,0,0,0,.25.28c5.23.27,73,5.31,91.13,19.38,20.15,15.67,2.72,37.51,2.72,37.51,6.79,2.41,32.82,20.9-.22,48.31a.4.4,0,0,0,0,.54c3.78,5.42,24.63,30.17-18,45,0,0,14.88,29.06-16.12,36.44s-180-12.49-190.66-22.33C214,637.28,209.5,516.74,233.34,503.64Z"/><path class="cls-2" d="M108.07,606.63s7.81-37.09,10.74-37.88c6.75-1.81,20.86-2.37,27.64-4,2.94-.73,13-2.5,14.1.33,1,2.46-6.37,7.67-10.16,9.73,18.64,7.16,43.37,22.53,2.46,13.84l0,.06c3.95,1.61,28.9,10.57,27,16.4-1.43,4.44-25.06-3.23-31.57-5.8l-.1.17c6.4,3.19,26.06,10.15,23.94,15.11-1.81,4.23-29.18-4.9-29.18-4.9s21.9,9.68,16.85,12.63c-4.64,2.71-25.41-5.78-31.71-8.33C121.54,611.29,108.07,606.63,108.07,606.63Z"/><path class="cls-5" d="M299.47,454.46C296.26,444,286,430.9,285.93,430.77l.91-.73c.11.14,10.47,13.36,13.75,24.08Z"/><path class="cls-5" d="M214.51,774.51l-1.16-.15c.07-.5,6.66-49.82,11.63-67.53,5-17.89,28.1-33.31,28.33-33.46l.65,1c-.23.15-23,15.34-27.86,32.8C221.15,724.77,214.57,774,214.51,774.51Z"/><path class="cls-2" d="M400.5,493.64s11.48,1.57,10.06,10.27c-1.81,11.09-11.5,17.75-12.61,12.74-.22-1,1.55-11.48,1.55-11.48s-10.17,21.58-14.88,18.13S389,501.4,389,501.4s-12.31,20.15-15.55,15.72,4.85-21.23,4.85-21.23S367.52,516.17,363.89,511s4.51-14.69,6.83-19.4c2.2-4.44,6.39-4.6,11.44-2.37,0,0,6.48-.19,9.37,1.95,1.11.82,2.87.29,3.86.54A41.64,41.64,0,0,1,400.5,493.64Z"/><path class="cls-2" d="M45,532.91c22.69-53.15,62.07-94.22,62.75-95,0,0,7.59-6.35,21.08,4C153.3,460.64,152,472,152,472s-55,73-61.7,83.91C85.82,563.09,38.55,548,45,532.91Z"/><path class="cls-2" d="M129.48,567S102.69,554.13,83,528.82c-11.34-14.61-38,4.09-38,4.09s-13.52,24.81,2.53,45.88c14.8,19.42,60.54,27.84,60.54,27.84Z"/><path class="cls-3" d="M98.19,545.57a.49.49,0,0,1-.35-.15c-10.37-11.1-26.91-11.12-27.06-11.1a.47.47,0,1,1,0-.94c.17,0,17.11,0,27.76,11.4a.47.47,0,0,1,0,.67A.49.49,0,0,1,98.19,545.57Z"/><path class="cls-2" d="M1388.35,480.41l-6.87-54.87,8.66-9.58c-.21,0-29.91,10-55.38-1.87-33.81-15.72-62.13-44.78-72.94-88.09L1226,336.46C1265.23,473.77,1385.41,480.52,1388.35,480.41Z"/><path class="cls-2" d="M1218.92,294.69c5.28-4.39,7,16.37,7,16.37s-1-16.27,3.07-20.57c3.23-3.43,6.62,11.29,7.87,17.42l.17,0c-.7-6.09-2-20.9,2.17-23.17,4.68-2.57,7.28,18,7.74,21.71h.06c-1.22-36.69,9.22-12.18,11.06,5.2,2.58-2.74,18-4.92,19.84-3.55,2.13,1.57-7.33,9.81-9.21,11.67-4.6,4.55-5.5,10.62-3.67,17.16.71,2.55-36.53,4.76-36.53,4.76a90.39,90.39,0,0,1-7.36-19.27,9.92,9.92,0,0,1-.69-2.23c-.19-1-.47-2.35-.78-3.87v0h0C1218.16,309,1215.94,297.17,1218.92,294.69Z"/><path class="cls-3" d="M1240.55,331.68a.5.5,0,0,1-.5-.43c0-.06-.82-5.78,4.06-8.28,4.47-2.29,9.06-7.31,9.11-7.36a.51.51,0,1,1,.75.68c-.19.22-4.75,5.21-9.39,7.59-4.22,2.16-3.55,7-3.52,7.22a.51.51,0,0,1-.43.58Z"/><path class="cls-5" d="M1405.51,978.68s-.36,14.14-10,18.13-37.57,7.58-27.14,16.67c6,5.22,34.22,1.85,42.19,1.85s15.45,3.45,21.37-1.85c6.52-5.82,0-34.8,0-34.8s-6.88,3.55-13.06,3.39C1410,981.84,1405.51,978.68,1405.51,978.68Z"/><path class="cls-5" d="M1516.22,978.68s-.35,14.14-10,18.12-37.58,7.59-27.14,16.68c6,5.22,34.22,1.85,42.18,1.85s15.46,3.44,21.38-1.85c6.51-5.82,0-34.8,0-34.8s-6.88,3.55-13.06,3.39C1520.67,981.84,1516.22,978.68,1516.22,978.68Z"/><path class="cls-9" d="M1333.85,591.07s-1.78,59.19,17.26,172.72c13.74,82,30,164.56,37.92,204.16A31.07,31.07,0,0,0,1418.11,993l7.64.3c15.39.61,27.87-12.5,26.75-28.09l-19.31-267.89-4.77-88.17Z"/><path class="cls-5" d="M1508,643.16c-.88,7.2-41.92,6.33-92.18,0s-89.36-17.11-88.49-24.32,41.42-8.08,91.67-1.76S1508.85,636,1508,643.16Z"/><path class="cls-9" d="M1391.55,633.35l107.29,342a34.53,34.53,0,0,0,32.27,24.38l6.45.11c15.22.26,26.86-13.71,24.09-28.92L1503,649.56a10.64,10.64,0,0,0-7.41-7.92C1475.43,635.89,1389.57,619.2,1391.55,633.35Z"/><path class="cls-2" d="M1514.82,619l-24.33-28c.44-.27,48.18-30.18,43.61-72.78-2.38-22.21-15.8-40.07-39.87-53.1a138.81,138.81,0,0,0-38.14-13.65l5.72-36.37a173.26,173.26,0,0,1,49.49,17.51c34.8,18.84,55.16,47.06,58.87,81.62,3,27.91-6.84,55.66-28.44,80.26C1526.23,612.09,1526.92,613.15,1514.82,619Z"/><path class="cls-12" d="M1491.2,446.24s-14.28-39.85-65.13-38-89.24,68.13-98.76,210.65c0,0,83.27-18.12,180.82,24.16C1508.13,643,1513.53,504.34,1491.2,446.24Z"/><path class="cls-12" d="M1531.13,437.82l-40.25,28.91S1384.12,505.37,1364.44,490c-32.7-25.54-14.46-73.1-14.46-73.1s17.13,1.65,63.08-7.07a113,113,0,0,1,13-1.62,127.73,127.73,0,0,1,22.49.49C1492.53,413.4,1531.13,437.82,1531.13,437.82Z"/><path class="cls-5" d="M1531.13,437.82c2.18,3.13-5.06,12.14-16.17,20.12s-21.89,11.92-24.07,8.79,5-12.14,16.17-20.13S1529,434.69,1531.13,437.82Z"/><path class="cls-3" d="M1558.53,527.93c-3.68,0-6.68-4.19-6.68-9.33s3-9.34,6.68-9.34,6.68,4.19,6.68,9.34S1562.21,527.93,1558.53,527.93Zm0-16.91c-2.71,0-4.92,3.4-4.92,7.58s2.21,7.57,4.92,7.57,4.92-3.4,4.92-7.57S1561.24,511,1558.53,511Z"/><path class="cls-2" d="M1448.48,408.68a15.09,15.09,0,0,1-12.33-8.95l-6.78-15.62-2-4.53-11.57-26.66,2,27.63,1.21,16.58.35,4.73a7.56,7.56,0,0,1-6.28,7.95h-.06c-2.06,3.32-4.9,10.08,3.59,12.76,10,3.15,26.12-4.65,31.91-13.89Z"/><path class="cls-2" d="M1510.11,578.59s-15.07-13.69-27-12.48-26.17,11.67-18.63,12.48,17.44-.81,17.44-.81-21,4.43-17.84,8.86,21.41.4,21.41.4-24.58,7.25-20.22,10.47,23-2.41,23-2.41-22.6,7.65-17.45,11.27,18.64-6.44,21.81-2,9.12,21.74,22.6,14.49Z"/><path class="cls-5" d="M1439.5,786.22l-23.07-69.61a66.12,66.12,0,0,0-30-36.78l.89-1.56A67.86,67.86,0,0,1,1418.14,716l23.07,69.61Z"/><path class="cls-2" d="M1498.31,467.27s-2.23-6.65,7.88-14,23.22-9.06,23.22-9.06l2.65,12.69L1517.79,463Z"/><path class="cls-8" d="M1447.3,348.37s-1.07,4.53,1.55,13.83c3.85,13.59-11.81,19.27-15.82,15.39-.49-.48.16-23.61.16-23.61l5-3Z"/><path class="cls-5" d="M1429.4,383.65a3.44,3.44,0,0,1,0,.46c-.66,8.91-10.26,13.07-10.26,13.07l-.06-.05-1.21-16.58c2.94-1.07,7.12-2.17,9.57-1C1428.68,380.2,1429.49,381.45,1429.4,383.65Z"/><ellipse class="cls-2" cx="1414.58" cy="357.34" rx="26.16" ry="32.02"/><path class="cls-8" d="M1404.21,332.76c.73,1-3.39,17.45,27.37,21.39s12.28-33.1-10.41-33.94c-32.77-1.2-37.54,20.66-34.39,28.53S1404.21,332.76,1404.21,332.76Z"/><path class="cls-8" d="M1451.62,312.5s-13.82,9.17-3.19,17.81,39.85,12.4,31.88,27-14.88,36.15-.53,38.85,23.38,1.61,29.22,12.94,31.89,4.32,29.76-9.17,20.19-25.36,10.63-37.77-33-23.19-38.79-39.38S1462.77,305.49,1451.62,312.5Z"/><path class="cls-8" d="M1428.19,348.9s12.57,13.15,8.21,26.59c0,0,7.29-7.9,7.45-10.85s-1.78-13.61-1.78-13.61Z"/><path class="cls-2" d="M1437.23,362.17c-3,2.8-7.1,3.09-9.25.64s-1.49-6.72,1.48-9.53,7.1-3.09,9.25-.64S1440.2,359.36,1437.23,362.17Z"/><path class="cls-11" d="M1532.38,413.47a.6.6,0,0,1-.22,0c-3.71-1.43-5.92-3.22-6.73-5.5-1.24-3.45.89-7.22,3.15-11.22,2-3.51,4-7.13,3.54-10.38-.58-3.84-5.66-4.74-11-5.69-4.55-.8-9.25-1.63-11.1-4.52a6.27,6.27,0,0,1-.51-5.15c.59-2.27,1.32-4.3,2-6.27,3-8.45,5.41-15.13-7.94-30.42-17.14-19.61-31.32-20.55-44.11-18.66-1.49.22-5.28,2.16-5.26,3.88,0,.89,1.24,3.1,12.32,4.48a36.52,36.52,0,0,1,23.23,20.28c4,8.86-1.68,18.35-6.23,26-3,5.11-5.68,9.52-4.86,12.48a4.25,4.25,0,0,0,2.32,2.62,45.73,45.73,0,0,0,9.94,3.51c8.65,2.32,17.6,4.72,18.72,20.19a.61.61,0,0,1-.57.66.63.63,0,0,1-.66-.57c-1.06-14.59-8.82-16.67-17.81-19.08a46.74,46.74,0,0,1-10.21-3.62,5.55,5.55,0,0,1-2.93-3.38c-1-3.47,1.8-8.09,5-13.44,4.63-7.76,9.88-16.56,6.16-24.83a35.21,35.21,0,0,0-22.31-19.57c-8.93-1.11-13.31-3-13.35-5.69s4.69-4.87,6.32-5.11c13.13-2,27.7-1,45.22,19.07,13.83,15.83,11.34,22.81,8.18,31.65-.7,1.94-1.42,3.95-2,6.16a5.08,5.08,0,0,0,.35,4.17c1.56,2.43,6,3.21,10.27,4,5.58,1,11.35,2,12.06,6.72.56,3.68-1.6,7.49-3.69,11.18s-4.11,7.28-3.07,10.19c.69,1.92,2.66,3.47,6,4.76a.62.62,0,0,1-.23,1.2Z"/><path class="cls-11" d="M1431.82,344.44h0a22.55,22.55,0,0,1-18-9.88.63.63,0,0,1,.2-.86.62.62,0,0,1,.85.2c.06.09,5.79,9.06,16.93,9.3a.62.62,0,0,1,0,1.24Z"/><path class="cls-3" d="M1482.11,578.19l-.31-.82c.24-.09,6-2.2,9.25,0l-.51.72C1487.71,576.15,1482.16,578.17,1482.11,578.19Z"/><path class="cls-3" d="M1485.68,587.45l-.32-.82c.24-.09,5.82-2.23,10.9,0l-.36.81C1491.15,585.35,1485.74,587.43,1485.68,587.45Z"/><path class="cls-3" d="M1488.45,595.51l-.3-.83c.29-.11,7.13-2.61,10.34.08l-.56.67C1495.11,593.07,1488.52,595.48,1488.45,595.51Z"/><path class="cls-9" d="M1334.76,625.31s23.36-3.23,58.43-.66a599.4,599.4,0,0,1,100.45,16.47L1476.4,644l-108,4.25-21.73-17.69Z"/><path class="cls-14" d="M1400.13,378.06a57.32,57.32,0,0,0,17.87-2.91s.74,8.74-8.93,9.32C1403.44,384.82,1400.13,378.06,1400.13,378.06Z"/><path class="cls-11" d="M1400.13,378.06s2.16,1.78,7.21,1.76,10.66-4.67,10.66-4.67S1407.24,378.09,1400.13,378.06Z"/><path class="cls-7" d="M1412.05,357.65a.61.61,0,0,1-.4-.35.59.59,0,0,1,.33-.77,6.47,6.47,0,0,1,7.7,1.7.6.6,0,0,1,0,.84.66.66,0,0,1-.84,0,10.3,10.3,0,0,0-6.4-1.43A.59.59,0,0,1,1412.05,357.65Z"/><path class="cls-7" d="M1416.75,364.13c0,1.41-.75,2.58-1.78,2.61s-1.9-1.08-2-2.49.76-2.57,1.79-2.61S1416.71,362.73,1416.75,364.13Z"/><path class="cls-7" d="M1390.81,360.72a.56.56,0,0,1-.5-.17.58.58,0,0,1,0-.83,6.45,6.45,0,0,1,7.77-1.34.59.59,0,0,1,.3.78.65.65,0,0,1-.78.3,10.26,10.26,0,0,0-6.46,1.1A.54.54,0,0,1,1390.81,360.72Z"/><path class="cls-7" d="M1397.65,364.94c.58,1.29.29,2.67-.64,3.09s-2.18-.28-2.76-1.57-.29-2.66.65-3.08S1397.07,363.66,1397.65,364.94Z"/><path class="cls-5" d="M1353.2,479.78a.57.57,0,0,1-.22,0,.61.61,0,0,1-.35-.8,300.37,300.37,0,0,1,13.93-29.06.62.62,0,1,1,1.09.58,304.47,304.47,0,0,0-13.87,28.93A.62.62,0,0,1,1353.2,479.78Z"/><path class="cls-9" d="M1360.05,127.23s65.54-19.75,74.84-12.17c10.28,8.38,31.21,87,27,138.34-2.34,28.91-12.42,31.8-27.4,32l-65.9.66Z"/><path class="cls-13" d="M1367.42,128.37c-5.63-2.74-49.72-7.58-72.57-33.93-24.64-28.41-28.32-79.24-53.49-72.07-24.4,7-12.36,99.51-11.61,105.1a.26.26,0,0,1-.23.29c-5.21.52-72.69,8.87-90.07,23.81-19.36,16.65-.88,37.6-.88,37.6-6.66,2.74-31.76,22.48,2.59,48.25a.4.4,0,0,1,.06.53c-3.51,5.6-23.12,31.34,20.2,44.1,0,0-13.44,29.75,17.89,35.6s179.17-21.28,189.33-31.64C1393.28,260.91,1391.87,140.3,1367.42,128.37Z"/><path class="cls-8" d="M644.25,314.63s13.38-5.39,22.1,7.29,7.94,5.31,21.35,19.76-8.42,21.9-3.83,34.09,15.32,12.87,12.08,28.9-16.12,10.53-15.47,20.71,7.79,19.47-3.86,21.8-15.1,1.7-21.7,16.49-27.41,1.82-43.1,8-56.45,3.87-59.06-5.3-34.39-14.15-18.92-39.86c8.53-14.17-4.66-10.85-6.59-29.36-1.58-15.16,18.56-12.28,10.31-25.83-3.69-6.06-5.86-22.59,8.24-32.92s11.58-31.4,33.32-27.5,23.9-4.43,36.78-8.35S636,316,644.25,314.63Z"/><path class="cls-2" d="M676.69,482.56l-22.64-50.45-12.38-3.69c.19-.1,30.74-7,46.35-30.37,20.71-31,29.8-70.55,16.53-113.17l36.05-9.68C778.44,412.9,679.27,481.13,676.69,482.56Z"/><path class="cls-5" d="M623.43,981.17s.33,13.87,9.19,17.78,34.52,7.44,24.93,16.36c-5.5,5.11-31.44,1.81-38.76,1.81s-14.2,3.38-19.64-1.81c-6-5.72,0-34.14,0-34.14s6.32,3.49,12,3.33C619.34,984.27,623.43,981.17,623.43,981.17Z"/><path class="cls-5" d="M508.86,967.35s-4.74,12.93,2,20.16,29.15,21,17.06,25.27c-6.94,2.48-29.67-11.16-36.43-14.15S477.17,996,474,988.94c-3.45-7.71,12.42-31.5,12.42-31.5s4.56,5.8,9.86,8C504,968.55,508.86,967.35,508.86,967.35Z"/><path class="cls-10" d="M689.27,601s-.63,63.92-5.48,176.69c-3.81,88.41-3,170.35-10.34,209.19-2.62,13.89-99.39,6.81-98.36-8.48L598,705.25l4.37-86.48Z"/><path class="cls-5" d="M528.08,650.15c.18,7.11,37.81,10,84.33,8.37s83.24-8.62,83.06-15.73-37.2-11.64-83.72-10S527.9,643,528.08,650.15Z"/><path class="cls-10" d="M636.29,648.31l-86,338.49c-4.13,14-98.57-25.38-96-40.29l79.59-288.14a10.16,10.16,0,0,1,6.8-7.77C559.18,645,638.1,634.44,636.29,648.31Z"/><path class="cls-4" d="M538.52,451.79S575,426.9,621.64,430.85c64.71,5.48,62.29,18.15,73.83,211.94,0,0-74.62-25.24-167.51,7.2C528,650,523.78,546.58,538.52,451.79Z"/><path class="cls-4" d="M559,418.51l-5.85,59.86S663.68,516,675.24,496.12c27.47-47.12-16.34-77.61-16.34-77.61s-18.54,9.54-38.85,9.13c-6.74-.13-19.72-1.48-26.54-2C577.6,424.46,559,418.51,559,418.51Z"/><path class="cls-5" d="M587.2,842.53l-1.67-.37,26.25-118.49a65.83,65.83,0,0,1,28.38-37.11L641,688a64.1,64.1,0,0,0-27.61,36.09Z"/><path class="cls-2" d="M593.51,425.65a13.23,13.23,0,0,0,9.61-9.35l4.27-14.83,1.24-4.31,7.29-25.32.92,25.24.55,15.15.16,4.32c.13,3.53,1.1,10.34,2.5,11.09,0,0,8.76,4.14,1.8,7.42-8.17,3.85-22.62-1.6-28.42-9.4Z"/><path class="cls-5" d="M607.32,401.06c0,.13,0,.27.07.41,1.41,8,10,10.81,10,10.81l0,0-.55-15.15c-2.59-.67-6.25-1.25-8.21.08C607.6,397.86,607,399.07,607.32,401.06Z"/><ellipse class="cls-2" cx="617.41" cy="375.72" rx="22.36" ry="29.19" transform="translate(-30.18 54.79) rotate(-4.96)"/><path class="cls-11" d="M631.34,393.1a46.11,46.11,0,0,1-15.45-.85s.2,8,8.47,7.55C629.18,399.55,631.34,393.1,631.34,393.1Z"/><path class="cls-7" d="M619.59,375.75a.52.52,0,0,0,.3-.36.54.54,0,0,0-.35-.66,5.31,5.31,0,0,0-6.38,2.31.56.56,0,0,0,.1.76.53.53,0,0,0,.71-.1,8.33,8.33,0,0,1,5.3-1.93A.5.5,0,0,0,619.59,375.75Z"/><path class="cls-7" d="M616.21,382.1c.09,1.28.88,2.26,1.76,2.19s1.51-1.17,1.41-2.46-.88-2.25-1.76-2.18S616.11,380.82,616.21,382.1Z"/><path class="cls-7" d="M637.91,376.42a.49.49,0,0,0,.41-.21.57.57,0,0,0-.09-.76,5.29,5.29,0,0,0-6.73-.43.57.57,0,0,0-.18.74.55.55,0,0,0,.7.19,8.35,8.35,0,0,1,5.59.35A.52.52,0,0,0,637.91,376.42Z"/><path class="cls-7" d="M632.5,380.93c-.37,1.22,0,2.44.85,2.73s1.81-.48,2.19-1.7,0-2.45-.85-2.73S632.87,379.7,632.5,380.93Z"/><path class="cls-5" d="M559.17,418.63c-8.3-1.32-12.57,8.85-17.17,28.23s-5.54,27.44,2.75,28.76,16.49-6.65,21.3-26C569.57,435.44,567.47,420,559.17,418.63Z"/><path class="cls-10" d="M546.7,649.06s83.91-21.38,141.74-.78l-14.33,8.79-53.27,3.19Z"/><path class="cls-2" d="M596.08,382.67c2.78,2.24,6.32,2.09,7.91-.35s.63-6.23-2.15-8.48-6.33-2.1-7.92.34S593.29,380.42,596.08,382.67Z"/><path class="cls-8" d="M626.05,354.09s-.27,8.36-8.69,8.54c0,0,.9,6.8-7.43,5.95,0,0,1.08,4.55-4.67,5.63,0,0-1.92,4.73-8.66,2.66s-11.42-15.53-5.14-23.38,23.61-15.38,34.57-11,18.88,27.37,16.23,29-8.9.82-9.74-4.36c0,0-5.77-1.76-4.68-7.37A16.42,16.42,0,0,1,626.05,354.09Z"/><path class="cls-10" d="M597.22,401.72h-.38c-4-.18-7.73-3-8.22-6.23-.92-5.89,4.11-11.26,4.32-11.49a.59.59,0,0,1,.83,0,.58.58,0,0,1,0,.83c0,.05-4.84,5.18-4,10.5.42,2.68,3.68,5.08,7.12,5.24,3.84.18,6.73-2.45,7.92-7.2.91-3.6.6-6.57-.92-8.82-2.32-3.45-6.74-4.11-6.78-4.12a.59.59,0,0,1,.16-1.16,11.88,11.88,0,0,1,7.59,4.61c1.72,2.55,2.09,5.84,1.1,9.77C604.16,400.79,599.51,401.72,597.22,401.72Z"/><path class="cls-10" d="M633.43,405.07a10.61,10.61,0,0,1-4.21-.86.59.59,0,1,1,.52-1,8.71,8.71,0,0,0,10.8-3.09,9.78,9.78,0,0,0,.17-11.8.58.58,0,0,1,.1-.82.59.59,0,0,1,.83.1,11.12,11.12,0,0,1-.16,13.23A9.75,9.75,0,0,1,633.43,405.07Z"/><path class="cls-8" d="M589.05,306.28a24.54,24.54,0,0,1-5-.53.6.6,0,0,1-.46-.7.59.59,0,0,1,.7-.45,22.54,22.54,0,0,0,21.2-6.73.59.59,0,1,1,.91.75A23.94,23.94,0,0,1,589.05,306.28Z"/><path class="cls-8" d="M684.48,333.85a.62.62,0,0,1-.23,0A44.07,44.07,0,0,1,667,319.69c-7.79-10.77-16.26-9.16-19.55-8-5.27,1.91-9.46-2-9.63-2.11a.59.59,0,1,1,.8-.86s3.85,3.52,8.43,1.86c3.53-1.28,12.65-3,20.91,8.39a43.64,43.64,0,0,0,16.74,13.72.59.59,0,0,1,.32.77A.57.57,0,0,1,684.48,333.85Z"/><path class="cls-8" d="M531.17,383.72a.59.59,0,0,1-.35-1.06c5.36-4,4.09-6.76-.72-14.8-5-8.41,2.44-18.24,2.76-18.66a.59.59,0,0,1,.82-.1.58.58,0,0,1,.11.82c-.07.1-7.29,9.62-2.68,17.34,4.89,8.17,6.63,11.67.42,16.35A.59.59,0,0,1,531.17,383.72Z"/><path class="cls-15" d="M528.3,428.15a.59.59,0,0,1-.43-.19.58.58,0,0,1,0-.83c6.51-6.05,1.61-12.23,1.4-12.49a.59.59,0,0,1,.08-.83.6.6,0,0,1,.83.09A10.15,10.15,0,0,1,528.7,428,.58.58,0,0,1,528.3,428.15Z"/><path class="cls-11" d="M561.58,356.27a.58.58,0,0,1-.46-.23c-.16-.2-3.87-5.08-3.1-11.11.49-3.73,2.59-7.06,6.27-9.88,6-4.63,9.91-4,14-3.35s8.22,1.31,15.18-3c7.55-4.69,13.14-4.31,16.5-3.17a12.54,12.54,0,0,1,5.6,3.71.6.6,0,0,1-.11.83.59.59,0,0,1-.83-.11c-.27-.36-7-8.7-20.53-.26-7.34,4.57-11.94,3.83-16,3.19s-7.49-1.2-13.11,3.12c-3.42,2.62-5.37,5.68-5.82,9.09-.72,5.54,2.82,10.21,2.86,10.25a.59.59,0,0,1-.11.83A.58.58,0,0,1,561.58,356.27Z"/><path class="cls-11" d="M670.56,395h-.1a.58.58,0,0,1-.48-.68c.82-5-1.72-6-5.93-7.7a35.8,35.8,0,0,1-5.9-2.78c-1.53-.94-2.27-1.83-2.33-2.79-.08-1.37,1.24-2.44,2.78-3.67,2.08-1.67,4.44-3.56,4.28-6.65-.21-3.91-2.17-4.2-5.16-4.63a13,13,0,0,1-6.29-2.13c-2.74-2-2.8-4.73-2.86-6.9s-.16-3.32-2-3.56c-5.2-.7-6.71-6.67-6.77-6.92a.58.58,0,0,1,.43-.71.58.58,0,0,1,.71.43c0,.05,1.39,5.44,5.79,6,2.92.39,3,2.58,3,4.7s.11,4.3,2.38,6a12.13,12.13,0,0,0,5.76,1.92c3,.44,5.91.85,6.16,5.73.19,3.69-2.53,5.87-4.72,7.63-1.22,1-2.38,1.91-2.33,2.68,0,.53.63,1.15,1.77,1.86a35.14,35.14,0,0,0,5.71,2.68c4.27,1.68,7.64,3,6.66,9A.6.6,0,0,1,670.56,395Z"/><path class="cls-11" d="M562.48,417.56h0a.58.58,0,0,1-.57-.6c.1-4.67-3.73-7.94-7.11-10.82-2.71-2.31-5-4.3-4.92-6.66.08-1.47,1.13-2.88,3.21-4.3,3.12-2.14,4.94-4.63,5.41-7.42a10.7,10.7,0,0,0-1.71-7.35.59.59,0,0,1,.12-.82.59.59,0,0,1,.83.13,11.71,11.71,0,0,1,1.93,8.23c-.53,3.12-2.52,5.88-5.92,8.2-1.75,1.2-2.64,2.31-2.69,3.39-.1,1.78,2,3.6,4.5,5.7,3.4,2.9,7.64,6.52,7.52,11.75A.58.58,0,0,1,562.48,417.56Z"/><path class="cls-2" d="M481.18,338.47c6-21.24,16.73-45.45,17-46.13l29.11,20.41-19.19-7.62,21.15,3.12c-5.89,14-20.16,60.64-6.77,86.81,5.75,11.24,15.93,18.71,31.07,22.78a7.47,7.47,0,0,1,5,4.39,48.41,48.41,0,0,1,1.72,30.87c-3.89,13.68-11.43,13.68-11.43,13.68C520.57,460.15,457.59,421.52,481.18,338.47Z"/><path class="cls-2" d="M724.94,235.84c-6.8-1,2.53,17.62,2.53,17.62s-7.62-14.41-13.31-16c-4.54-1.26.21,13.09,2.33,19l-.17.06c-2.56-5.57-9.2-18.88-13.9-18.67-5.33.23,3.15,19.17,4.67,22.57l-.05,0c-18-32-14.2-5.62-6.75,10.19-3.62-1-17.92,5.14-18.79,7.27-1,2.45,11.36,4.58,13.94,5.19,6.28,1.5,10.21,6.21,12,12.76.72,2.55,33.68-14.92,33.68-14.92a89.92,89.92,0,0,0-3.72-20.29,10.25,10.25,0,0,0-.57-2.26c-.36-1-.82-2.26-1.35-3.72v0h0C733,247.62,728.77,236.4,724.94,235.84Z"/><path class="cls-2" d="M708.29,275.2s6.63,2,11.79,1.58,7.27,4.65,7.27,4.65Z"/><path class="cls-2" d="M513.71,256.21c6.75-.93-2.71,17.47-2.71,17.47s7.72-14.23,13.39-15.73c4.52-1.19-.34,13-2.51,18.82l.16.06c2.61-5.51,9.34-18.65,14-18.39,5.29.29-3.34,19-4.89,22.36l.06,0c18.23-31.56,14.16-5.42,6.59,10.19,3.61-1,11.33-2,12.18.08,1,2.44-6.44,7.32-8.73,8.61-5.29,3-14.54,11-19.88,13.92-2.32,1.24-24.27-12.82-24.27-12.82a89.52,89.52,0,0,1,3.91-20.1,9.56,9.56,0,0,1,.59-2.24c.37-1,.83-2.23,1.37-3.68v0h0C505.58,267.83,509.9,256.73,513.71,256.21Z"/><path class="cls-9" d="M502.22,136.51s-68.43,1.57-74.92,11.66c-7.18,11.15-2.68,92.38,17.21,139.9,11.19,26.76,21.66,26.38,36,21.87l62.84-19.81Z"/><path class="cls-13" d="M495.57,139.89c4.51-4.36,44.92-22.63,58.47-54.77C568.65,50.46,556.38,1,582.52,0c25.36-1,42.63,90.77,43.65,96.31a.24.24,0,0,0,.31.2c5.11-1.12,71.86-14.11,93-5.3C743.06,101,732,126.69,732,126.69c7.18.55,37.16,11.52,12.5,46.67a.4.4,0,0,0,.11.53c5.07,4.23,31.7,22.62-5.53,48.19,0,0,22,24.11-6,39.4s-176.93,35.35-189.81,28.65C512.11,273.91,476,158.81,495.57,139.89Z"/></g></g></svg>