<svg xmlns="http://www.w3.org/2000/svg" viewBox="0 0 196.63 36.95"><defs><style>.cls-1{fill:#333;}.cls-2{fill:#ff4b42;}</style></defs><g id="Capa_2" data-name="Capa 2"><g id="_Layer_" data-name="&lt;Layer&gt;"><path class="cls-1" d="M26.43,26.93v9.18H0V.94H10.82v26Z"/><path class="cls-2" d="M48.17,0q7.9,0,12.75,5.11t4.84,13.42q0,8.25-4.87,13.34T48.07,37Q40,37,35,31.89T30.09,18.48q0-8.35,4.94-13.42T48.17,0ZM48,8.65a6,6,0,0,0-5.11,2.56,12,12,0,0,0-1.85,7.12c0,3.13.6,5.56,1.82,7.29a6,6,0,0,0,5.19,2.59,5.67,5.67,0,0,0,5-2.59Q54.83,23,54.84,18A11.58,11.58,0,0,0,53,11.14,5.86,5.86,0,0,0,48,8.65Z"/><path class="cls-1" d="M101.87,18.72v8.4H86.41v-8.4Z"/><path class="cls-2" d="M156.66,16.75V36.11h-6.87l-.34-3.6a12.62,12.62,0,0,1-10.18,4.4,15.62,15.62,0,0,1-12.1-5.09q-4.65-5.1-4.65-13.29t5-13.27A17.22,17.22,0,0,1,140.46.1,16.14,16.14,0,0,1,151,3.73a13.84,13.84,0,0,1,5.17,9.51H145.74q-1.08-4.1-5.48-4.1-6.87,0-6.87,9.93c0,3.06.63,5.39,1.88,7a6.62,6.62,0,0,0,5.53,2.37c3.3,0,5.3-1.37,6-4.1h-4.64V16.75Z"/><path class="cls-1" d="M179,0q7.91,0,12.75,5.11t4.84,13.42q0,8.25-4.87,13.34T178.94,37q-8.1,0-13-5.06T161,18.48q0-8.35,4.94-13.42T179,0Zm-.15,8.65a6,6,0,0,0-5.11,2.56,12,12,0,0,0-1.85,7.12,12.59,12.59,0,0,0,1.82,7.29,6,6,0,0,0,5.19,2.59,5.67,5.67,0,0,0,5-2.59q1.72-2.6,1.73-7.59a11.58,11.58,0,0,0-1.8-6.89A5.86,5.86,0,0,0,178.89,8.65Z"/></g></g></svg>